<?xml version="1.0" encoding="utf-8"?>
<!-- Generator: Adobe Illustrator 23.0.1, SVG Export Plug-In . SVG Version: 6.00 Build 0)  -->
<svg version="1.1" id="Layer_1" xmlns="http://www.w3.org/2000/svg" xmlns:xlink="http://www.w3.org/1999/xlink" x="0px" y="0px"
	 viewBox="0 0 350 100" style="enable-background:new 0 0 350 100;" xml:space="preserve">
<style type="text/css">
	.st0{display:none;fill:#3B566E;}
	.st1{fill:#3B566E;}
	.st2{fill:#3A2CC2;}
	.st3{fill:#47489E;}
	.st4{fill:#3C566E;}
</style>
<g>
	<g>
		<path class="st0" d="M76.69,66.88h-7.08c-3.33,0-5.9-0.88-7.71-2.65c-1.81-1.77-2.72-4.32-2.72-7.65V36.54
			c0-3.33,0.91-5.88,2.72-7.65c1.81-1.77,4.38-2.65,7.71-2.65h7.08c3.33,0,5.9,0.88,7.71,2.65c1.81,1.77,2.72,4.32,2.72,7.65v20.04
			c0,3.33-0.91,5.88-2.72,7.65C82.59,65.99,80.02,66.88,76.69,66.88z M70.87,59.92h4.49c1.35,0,2.31-0.28,2.88-0.85
			c0.57-0.57,0.85-1.53,0.85-2.88V36.91c0-1.35-0.28-2.31-0.85-2.88c-0.57-0.57-1.53-0.85-2.88-0.85h-4.49
			c-1.35,0-2.3,0.28-2.84,0.85c-0.55,0.57-0.82,1.53-0.82,2.88v19.28c0,1.35,0.27,2.31,0.82,2.88
			C68.58,59.64,69.52,59.92,70.87,59.92z"/>
		<path class="st1" d="M100.77,75.47H95.4c-0.88,0-1.33-0.42-1.33-1.26V38.05c0-1.89,1.53-3.41,3.41-3.41h1.2
			c1.89,0,3.41,1.53,3.41,3.41v0h0.25c0.46-1.14,1.28-1.99,2.47-2.56c1.18-0.57,2.42-0.85,3.73-0.85h2.59c3.24,0,5.7,0.88,7.36,2.65
			c1.66,1.77,2.5,4.32,2.5,7.65v11.63c0,3.33-0.83,5.88-2.5,7.65c-1.67,1.77-4.12,2.65-7.36,2.65h-2.59c-1.31,0-2.55-0.28-3.73-0.85
			c-1.18-0.57-2-1.42-2.47-2.56h-0.25v10.75C102.1,75.05,101.66,75.47,100.77,75.47z M106.46,59.92h2.78c1.35,0,2.31-0.28,2.88-0.85
			c0.57-0.57,0.85-1.53,0.85-2.88V45.32c0-1.35-0.28-2.31-0.85-2.88c-0.57-0.57-1.53-0.85-2.88-0.85h-2.78
			c-2.91,0-4.36,1.6-4.36,4.8v8.72C102.1,58.32,103.55,59.92,106.46,59.92z"/>
		<path class="st1" d="M128.01,41.59h-2.53c-0.51,0-0.85-0.08-1.04-0.25c-0.19-0.17-0.28-0.51-0.28-1.01V38.5
			c0-2.13,1.73-3.86,3.86-3.86l0,0c0.38,0,0.7-0.31,0.7-0.7v-6.01c0-0.88,0.46-1.33,1.39-1.33h2.78c2.13,0,3.86,1.73,3.86,3.86v3.48
			c0,0.46,0.25,0.7,0.76,0.7h2.4c2.13,0,3.86,1.73,3.86,3.86v1.83c0,0.46-0.1,0.79-0.28,0.98c-0.19,0.19-0.54,0.28-1.04,0.28h-4.93
			c-0.51,0-0.76,0.23-0.76,0.7v13.97c0,1.31,0.29,2.24,0.89,2.81c0.59,0.57,1.56,0.85,2.91,0.85h2.53c0.73,0,1.33,0.59,1.33,1.33
			v4.36c0,0.46-0.09,0.79-0.28,0.98c-0.19,0.19-0.54,0.28-1.04,0.28h-3.86c-3.33,0-5.91-0.88-7.74-2.65
			c-1.83-1.77-2.75-4.3-2.75-7.59V42.29C128.71,41.9,128.4,41.59,128.01,41.59z"/>
		<path class="st2" d="M149.95,26.45L149.95,26.45c0-2.22,1.8-4.01,4.01-4.01h2.75c0.84,0,1.26,0.4,1.26,1.2v2.81
			c0,2.22-1.8,4.01-4.01,4.01h0C151.75,30.47,149.95,28.67,149.95,26.45z"/>
		<path class="st1" d="M149.95,65.55V35.97c0-0.88,0.42-1.33,1.26-1.33h2.69c2.25,0,4.08,1.83,4.08,4.08v26.83
			c0,0.55-0.09,0.91-0.28,1.07c-0.19,0.17-0.52,0.25-0.98,0.25h-5.44C150.54,66.88,149.95,66.28,149.95,65.55z"/>
		<path class="st1" d="M180.67,66.88h-5.63c-3.33,0-5.9-0.88-7.71-2.65c-1.81-1.77-2.72-4.32-2.72-7.65V44.94
			c0-3.33,0.91-5.88,2.72-7.65c1.81-1.77,4.38-2.65,7.71-2.65h5.63c3.29,0,5.85,0.9,7.68,2.69c1.83,1.79,2.75,4.33,2.75,7.62v11.63
			c0,3.29-0.92,5.83-2.75,7.62C186.52,65.98,183.96,66.88,180.67,66.88z M176.25,59.99h3.22c1.35,0,2.31-0.27,2.88-0.82
			c0.57-0.55,0.85-1.5,0.85-2.84V45.2c0-1.35-0.28-2.3-0.85-2.84c-0.57-0.55-1.53-0.82-2.88-0.82h-3.22c-1.35,0-2.3,0.27-2.84,0.82
			c-0.55,0.55-0.82,1.5-0.82,2.84v11.13c0,1.35,0.27,2.3,0.82,2.84C173.95,59.71,174.9,59.99,176.25,59.99z"/>
		<path class="st1" d="M201.43,66.88L201.43,66.88c-2.22,0-4.01-1.8-4.01-4.01V38.05c0-1.89,1.53-3.41,3.41-3.41h1.2
			c1.89,0,3.41,1.53,3.41,3.41v0h0.25c0.93-2.28,2.99-3.41,6.19-3.41h2.02c6.62,0,9.92,3.44,9.92,10.3v20.61
			c0,0.88-0.46,1.33-1.39,1.33h0c-3.67,0-6.64-2.97-6.64-6.64V45.32c0-1.35-0.28-2.31-0.85-2.88c-0.57-0.57-1.53-0.85-2.88-0.85
			h-2.28c-2.91,0-4.36,1.6-4.36,4.8v16.47C205.45,65.08,203.65,66.88,201.43,66.88z"/>
		<path class="st2" d="M245.15,66.88h-8.85c-0.93,0-1.45-0.44-1.58-1.33l-6.76-37.99c-0.13-0.88,0.32-1.33,1.33-1.33h6.57
			c0.97,0,1.47,0.44,1.52,1.33l3.67,31.16h0.44l6.07-31.35c0.13-0.76,0.57-1.14,1.33-1.14h7.08c0.8,0,1.26,0.36,1.39,1.07
			l6.19,31.42h0.51l3.6-31.1c0.04-0.93,0.55-1.39,1.52-1.39h6.57c1.01,0,1.45,0.46,1.33,1.39l-6.83,37.93
			c-0.13,0.88-0.61,1.33-1.45,1.33h-8.91c-0.88,0-1.39-0.44-1.52-1.33l-5.69-29.65h-0.25l-5.75,29.65
			C246.49,66.44,245.99,66.88,245.15,66.88z"/>
		<path class="st2" d="M286.74,77.56h-4.05c-0.84,0-1.26-0.46-1.26-1.39v-4.24c0-0.93,0.42-1.39,1.26-1.39h1.33
			c2.66,0,4.46-0.37,5.4-1.11c0.22-0.17,0.42-0.38,0.62-0.62c1.18-1.47,0.09-3.65-1.79-3.65l0,0c-0.8,0-1.33-0.44-1.58-1.33
			l-7.4-27.88c-0.25-0.88,0.06-1.33,0.95-1.33h5.63c0.84,0,1.37,0.44,1.58,1.33l5.44,23.33h0.25l5.37-23.33
			c0.17-0.88,0.7-1.33,1.58-1.33h5.31c1.05,0,1.47,0.46,1.26,1.39l-7.71,30.85c-0.93,3.5-2.36,6.15-4.3,7.96
			C292.7,76.65,290.07,77.56,286.74,77.56z"/>
		<path class="st2" d="M309.75,63.46L309.75,63.46c0-1.43,0.4-2.65,1.2-3.67l13.4-18.02v-0.25h-12.71c-0.89,0-1.33-0.46-1.33-1.39
			v-2.09c0-1.89,1.53-3.41,3.41-3.41h16.44c1.89,0,3.41,1.53,3.41,3.41v1.71c0,1.35-0.34,2.44-1.01,3.29l-12.39,16.69v0.25h12.77
			c0.89,0,1.33,0.46,1.33,1.39v2.09c0,1.88-1.53,3.41-3.41,3.41h-17.7C311.28,66.88,309.75,65.35,309.75,63.46z"/>
	</g>
	<g>
		<path class="st3" d="M82.91,40.76l-0.06,0.03c-1.18,0.68-1.8,2.03-1.54,3.37c0.38,1.89,0.57,3.85,0.57,5.85
			c-0.01,16.46-13.4,29.85-29.87,29.85c-8.46,0-16.11-3.53-21.54-9.2c-0.45-0.47-1.17-0.56-1.72-0.21l-3.19,2.01
			c-0.72,0.46-0.86,1.46-0.28,2.09c0.35,0.38,0.7,0.75,1.07,1.11c3.33,3.33,7.21,5.95,11.54,7.78c4.48,1.89,9.23,2.85,14.13,2.85
			s9.65-0.96,14.13-2.85c4.32-1.83,8.2-4.44,11.54-7.78c3.33-3.33,5.95-7.21,7.78-11.54c1.89-4.48,2.85-9.23,2.85-14.13
			c0-2.4-0.23-4.77-0.69-7.08C87.21,40.77,84.81,39.67,82.91,40.76L82.91,40.76z"/>
		<path class="st3" d="M22.16,50.2c-0.11-16.43,13.18-29.93,29.61-30.07c9.53-0.08,18.05,4.33,23.58,11.23
			c0.99,1.24,2.73,1.58,4.1,0.79l0.06-0.04c1.69-0.97,2.12-3.23,0.9-4.75c-0.84-1.06-1.75-2.07-2.72-3.04
			c-3.33-3.33-7.21-5.95-11.54-7.78c-4.48-1.89-9.23-2.85-14.13-2.85s-9.65,0.96-14.13,2.85c-4.32,1.83-8.2,4.44-11.54,7.78
			c-3.33,3.33-5.95,7.21-7.78,11.54c-1.89,4.48-2.85,9.23-2.85,14.13s0.96,9.65,2.85,14.13c0,0,0,0.01,0.01,0.01
			c0.33,0.77,1.27,1.06,1.97,0.61l3.19-2.01c0.56-0.35,0.79-1.06,0.54-1.67C22.94,57.71,22.19,54.04,22.16,50.2L22.16,50.2z"/>
		<path class="st4" d="M40.35,46.41v9.69L37.07,58V46.41c0-0.91,0.73-1.64,1.64-1.64c0.45,0,0.86,0.18,1.16,0.48
			C40.17,45.54,40.35,45.95,40.35,46.41L40.35,46.41z"/>
		<path class="st4" d="M46.39,39.32v13.27l-3.28,1.9V39.32c0-0.91,0.73-1.64,1.64-1.64c0.45,0,0.86,0.18,1.16,0.48
			C46.2,38.46,46.39,38.87,46.39,39.32L46.39,39.32z"/>
		<path class="st4" d="M52.42,41.59v14.74l-3.28-3.9V41.59c0-0.91,0.73-1.64,1.64-1.64c0.45,0,0.86,0.18,1.16,0.48
			C52.24,40.73,52.42,41.14,52.42,41.59L52.42,41.59z"/>
		<path class="st4" d="M58.32,36.04v19.54l-3.28,1.78V36.04c0-0.91,0.73-1.64,1.64-1.64c0.45,0,0.86,0.18,1.16,0.48
			C58.14,35.18,58.32,35.59,58.32,36.04L58.32,36.04z"/>
		<path class="st4" d="M64.23,45.23v7.16l-3.28,1.78v-8.94c0-0.91,0.73-1.64,1.64-1.64c0.45,0,0.86,0.18,1.16,0.48
			C64.04,44.36,64.23,44.77,64.23,45.23L64.23,45.23z"/>
		<polygon class="st4" points="69.84,53.68 64.23,56.72 60.95,58.49 58.32,59.91 55.04,61.69 53.25,62.66 52.42,61.67 49.14,57.77 
			47.76,56.12 46.39,56.92 43.11,58.82 40.35,60.42 37.07,62.33 31.43,65.6 30.25,63.55 37.07,59.6 40.35,57.69 43.11,56.09 
			46.39,54.19 48.29,53.09 49.14,54.1 52.42,58 53.82,59.67 55.04,59.01 58.32,57.23 60.95,55.81 64.23,54.03 68.72,51.6 
			69.84,53.68 		"/>
		<polygon class="st4" points="73.8,49.93 67.24,49.82 70.42,55.55 73.8,49.93 		"/>
	</g>
</g>
</svg>
